<svg width="23" height="23" viewBox="0 0 23 23" fill="none" xmlns="http://www.w3.org/2000/svg">
<path d="M3.35416 9.5875C3.35416 8.74742 3.35416 8.32738 3.51765 8.00651C3.66146 7.72427 3.89093 7.4948 4.17317 7.35099C4.49404 7.1875 4.91408 7.1875 5.75416 7.1875H7.91748C8.34825 7.1875 8.56363 7.1875 8.75378 7.25309C8.92194 7.31109 9.07509 7.40575 9.20217 7.53022C9.34587 7.67097 9.44218 7.86362 9.63481 8.24892L10.4902 9.9598C10.6828 10.3451 10.7791 10.5377 10.9228 10.6785C11.0499 10.803 11.203 10.8976 11.3712 10.9556C11.5614 11.0212 11.7767 11.0212 12.2075 11.0212H17.2458C18.0859 11.0212 18.5059 11.0212 18.8268 11.1847C19.1091 11.3285 19.3385 11.558 19.4823 11.8402C19.6458 12.1611 19.6458 12.5811 19.6458 13.4212V17.2462C19.6458 18.0863 19.6458 18.5063 19.4823 18.8272C19.3385 19.1094 19.1091 19.3389 18.8268 19.4827C18.5059 19.6462 18.0859 19.6462 17.2458 19.6462H5.75416C4.91408 19.6462 4.49404 19.6462 4.17317 19.4827C3.89093 19.3389 3.66146 19.1094 3.51765 18.8272C3.35416 18.5063 3.35416 18.0863 3.35416 17.2462V9.5875Z" stroke="#787676"/>
<path d="M16.7708 10.5417V6.89199C16.7708 6.6474 16.7708 6.5251 16.7432 6.41002C16.7187 6.30798 16.6783 6.21044 16.6235 6.12096C16.5616 6.02005 16.4751 5.93357 16.3022 5.76062L14.3645 3.82288C14.1915 3.64993 14.105 3.56345 14.0041 3.50161C13.9146 3.44678 13.8171 3.40637 13.7151 3.38188C13.6 3.35425 13.4777 3.35425 13.2331 3.35425H8.62916C7.78908 3.35425 7.36904 3.35425 7.04817 3.51774C6.76593 3.66155 6.53646 3.89102 6.39265 4.17326C6.22916 4.49413 6.22916 4.91417 6.22916 5.75425V7.66675" stroke="#787676"/>
<path d="M12.9375 3.35417L12.9375 5.5875C12.9375 6.14755 12.9375 6.42758 13.0465 6.64149C13.1424 6.82965 13.2953 6.98263 13.4835 7.07851C13.6974 7.1875 13.9774 7.1875 14.5375 7.1875L16.7708 7.1875" stroke="#787676"/>
</svg>
